Coordinates
version=1
nRows=21
nColumns=33
inDegrees=yes

Units are S.I. units (second, meters, Newtons, ...)
Angles are in degrees.

endheader
time	ground_thorax_rot_x	ground_thorax_rot_y	ground_thorax_rot_z	ground_thorax_tx	ground_thorax_ty	ground_thorax_tz	clav_prot_r	clav_elev_r	scapula_abduction_r	scapula_elevation_r	scapula_upward_rot_r	scapula_winging_r	shoulder_elv_r	plane_of_elev_r	axial_rot_r	elbow_flexion_r	pro_sup_r	wrist_flex_r	wrist_dev_r	clav_prot_l	clav_elev_l	scapula_abduction_l	scapula_elevation_l	scapula_upward_rot_l	scapula_winging_l	shoulder_elv_l	plane_of_elev_l	axial_rot_l	elbow_flexion_l	pro_sup_l	wrist_flex_l	wrist_dev_l
      2.88000000	     37.72551752	     13.87682871	     17.66119991	   -197.57296118	    832.83617435	      5.97542813	     14.82179290	     37.67030672	     38.95581444	     45.00000000	    -45.00000000	   1711.65494054	   -287.80057082	     32.42316986	     59.39642378	    385.45292075	    167.65040987	     11.30782189	      4.39376264	     11.19077820	    -45.00000000	    -38.53068246	     45.00000000	    -45.00000000	  -3499.94191540	    437.64014813	     19.45648141	    -50.51233500	    742.80412161	    142.14925955	     -3.24550109	    -12.66352070
      2.89000000	     37.72274540	     14.01362375	     17.89990656	   -195.26163867	    832.35301881	      6.08040778	     15.49840842	     38.02400784	     39.28169070	     45.00000000	    -45.00000000	   1711.78906424	   -287.86013519	     32.27044098	     59.44094651	    385.45944252	    169.33126014	     11.17217018	      4.35052521	     10.57821678	    -45.00000000	    -38.42876574	     45.00000000	    -45.00000000	  -3500.18587926	    437.74108970	     19.24830585	    -50.40654787	    743.06983719	    144.66397765	     -3.18047078	    -12.36847671
      2.90000000	     37.76679291	     14.16594093	     17.92472067	   -192.74300459	    831.76569061	      6.20630584	     15.05544805	     37.82962501	     39.20521829	     45.00000000	    -45.00000000	   1711.80317608	   -287.85112510	     32.61006657	     58.97687293	    385.36778134	    170.73513981	     11.06613198	      4.30442791	     11.11495639	    -45.00000000	    -38.66738050	     45.00000000	    -44.76680179	  -3500.22624201	    437.56646512	     19.34046681	    -50.87400194	    743.17319067	    146.36647880	     -3.22412514	    -12.22256740
      2.91000000	     37.82613266	     14.37071837	     18.09404902	   -190.01171202	    831.06406151	      6.35191727	     15.39201774	     38.00958770	     39.44216593	     45.00000000	    -45.00000000	   1711.83922695	   -287.92072527	     32.60447306	     58.84472465	    385.26830479	    172.31451379	     10.94013698	      4.24371343	     10.88787099	    -45.00000000	    -38.64274918	     45.00000000	    -44.59400045	  -3500.44473430	    437.49763267	     19.27348904	    -50.88074290	    743.40105648	    148.38280938	     -3.21704272	    -11.99466405
      2.92000000	     37.79266301	     14.59625251	     18.27005280	   -187.06314548	    830.24007748	      6.51445007	     15.44725088	     38.05524649	     39.56869817	     45.00000000	    -45.00000000	   1711.94048988	   -288.01688325	     32.62369691	     58.63769612	    385.24727775	    174.00555095	     10.79041267	      4.18813313	     10.88791445	    -45.00000000	    -38.73630197	     45.00000000	    -44.23930821	  -3500.57095772	    437.48557326	     19.25682646	    -51.13998564	    743.56328688	    150.27832944	     -3.24846277	    -11.80360227
      2.93000000	     37.77770258	     14.86281939	     18.52834371	   -183.89484230	    829.28512519	      6.69006307	     15.64417517	     38.12277191	     39.63559388	     45.00000000	    -45.00000000	   1712.16108027	   -288.04060310	     32.64545546	     58.59250085	    385.14319219	    175.89376925	     10.63626020	      4.13580313	     10.71287663	    -45.00000000	    -38.78076168	     45.00000000	    -44.00372969	  -3500.78325536	    437.44926460	     19.17553610	    -51.25649755	    743.64447285	    152.33351679	     -3.30249476	    -11.62172028
      2.94000000	     37.76598408	     15.15868747	     18.79465181	   -180.50595312	    828.19181262	      6.87490630	     15.70899305	     38.13648353	     39.73490131	     45.00000000	    -45.00000000	   1712.30622416	   -288.12156020	     32.66241378	     58.57321341	    385.02756259	    177.87018759	     10.47675657	      4.08968147	     10.68313804	    -45.00000000	    -38.83088423	     45.00000000	    -43.73846314	  -3500.96917600	    437.39065456	     19.16458063	    -51.40433132	    743.74428056	    154.28036985	     -3.38978775	    -11.45355356
      2.95000000	     37.72102359	     15.52444688	     19.12849024	   -176.89510588	    826.95185619	      7.06460156	     14.98514102	     37.79750986	     39.63734509	     45.00000000	    -45.00000000	   1712.36344271	   -288.20267528	     32.99587014	     58.42826636	    384.86383134	    179.46184239	     10.35226539	      3.97162921	     11.33811530	    -45.00000000	    -39.04342643	     45.00000000	    -43.56551814	  -3500.97762967	    437.09212017	     19.35994518	    -51.78669411	    743.72119498	    155.52365982	     -3.53273212	    -11.39328120
      2.96000000	     37.72646698	     15.84126005	     19.46532041	   -173.07066466	    825.55957153	      7.25787831	     15.66630226	     38.16736500	     39.86392396	     45.00000000	    -45.00000000	   1712.53691989	   -288.32087141	     32.83846877	     58.66892229	    384.77864504	    181.35008564	     10.17349111	      3.90569465	     10.83120495	    -45.00000000	    -39.01338821	     45.00000000	    -43.33301259	  -3501.35136880	    437.04215068	     19.18420693	    -51.53402653	    743.93076452	    157.02692874	     -3.63861800	    -11.22934916
      2.97000000	     37.67814540	     16.26655767	     19.85146663	   -169.03597682	    824.00659435	      7.44859683	     15.58420655	     38.12993959	     39.86040278	     45.00000000	    -45.00000000	   1712.64343637	   -288.46655234	     32.93587451	     58.83028807	    384.63986524	    183.17771607	     10.01106648	      3.79958560	     10.98472112	    -45.00000000	    -39.11558514	     45.00000000	    -43.10862383	  -3501.54429002	    436.86182075	     19.24086264	    -51.72789245	    743.97504096	    158.13429074	     -3.79038811	    -11.15953601
      2.98000000	     37.58685090	     16.66654173	     20.40387475	   -164.80398926	    822.28550287	      7.63051434	     15.81356534	     38.23916731	     39.94752397	     45.00000000	    -45.00000000	   1712.91980925	   -288.60073827	     32.86434569	     59.17893187	    384.46216962	    185.14072363	      9.83519232	      3.74585848	     10.80645216	    -45.00000000	    -39.11297904	     45.00000000	    -42.88660200	  -3501.81369409	    436.72904065	     19.10638523	    -51.75331685	    744.01911782	    159.19880085	     -3.96879871	    -11.09465850
      2.99000000	     37.50360072	     17.12224478	     20.95129429	   -160.38989786	    820.39161681	      7.79525085	     15.88088916	     38.24836965	     40.00754648	     45.00000000	    -45.00000000	   1713.10401224	   -288.80772457	     32.85578373	     59.59586344	    384.24353356	    187.13728175	      9.66157863	      3.67050156	     10.79088428	    -45.00000000	    -39.10284904	     45.00000000	    -42.76055998	  -3502.07541928	    436.51751371	     19.08253275	    -51.82318525	    743.99277769	    160.02699306	     -4.16890940	    -11.07887050
      3.00000000	     37.40714869	     17.62463094	     21.56096743	   -155.80714206	    818.32728788	      7.94197118	     15.94959128	     38.23190135	     40.04002162	     45.00000000	    -45.00000000	   1713.32353807	   -288.98716382	     32.77541788	     60.16088369	    384.02831980	    189.21583691	      9.47542472	      3.59862675	     10.71991683	    -45.00000000	    -39.07397457	     45.00000000	    -42.72771718	  -3502.36931784	    436.28768603	     19.06766019	    -51.85169022	    743.98174154	    160.66808652	     -4.44484978	    -11.10465499
      3.01000000	     37.26291098	     18.21568338	     22.23716026	   -151.07533492	    816.10005606	      8.06835994	     15.93934587	     38.26573593	     39.98778984	     45.00000000	    -45.00000000	   1713.47057475	   -289.22217172	     32.77948921	     60.91099054	    383.78815238	    191.09411130	      9.30721363	      3.49348514	     10.82472015	    -45.00000000	    -39.11568580	     45.00000000	    -42.83581419	  -3502.66807087	    436.05811041	     19.09621551	    -51.86393243	    743.94166215	    160.96767705	     -4.64994106	    -11.15858736
      3.02000000	     37.08652185	     18.79507295	     23.00638418	   -146.21287105	    813.72224285	      8.17772156	     16.00671513	     38.30334071	     39.95519941	     45.00000000	    -45.00000000	   1713.75842011	   -289.44532936	     32.65658496	     61.67464522	    383.55017231	    193.02659553	      9.13522201	      3.42664918	     10.77005954	    -45.00000000	    -39.08051991	     45.00000000	    -42.84878811	  -3502.96966431	    435.81888136	     19.01496688	    -51.93115030	    743.89282994	    160.93658278	     -4.92401091	    -11.27884891
      3.03000000	     36.87102727	     19.46331727	     23.86128674	   -141.24055207	    811.20957163	      8.27274074	     16.01939002	     38.34150637	     39.82865976	     45.00000000	    -45.00000000	   1713.93449233	   -289.72505671	     32.64053082	     62.74536435	    383.28032082	    194.81299064	      8.98326748	      3.33244468	     10.84789740	    -45.00000000	    -39.03837538	     45.00000000	    -43.17392322	  -3503.29313552	    435.55361430	     19.03634407	    -51.87273538	    743.82030930	    160.56918996	     -5.14853133	    -11.44233214
      3.04000000	     36.65394163	     20.08580873	     24.71587490	   -136.17778265	    808.57923788	      8.35818464	     16.04044238	     38.37561785	     39.72318730	     45.00000000	    -45.00000000	   1714.22896611	   -289.97229990	     32.51223491	     63.62399037	    383.01040509	    196.61432300	      8.82776951	      3.24141624	     10.82967887	    -45.00000000	    -38.97161963	     45.00000000	    -43.24955779	  -3503.60629356	    435.25418344	     18.97038911	    -51.92332461	    743.70473533	    159.64494524	     -5.42755943	    -11.71969192
      3.05000000	     36.38859995	     20.79828804	     25.63598223	   -131.04918935	    805.84777683	      8.43211312	     16.02564329	     38.40554153	     39.52258155	     45.00000000	    -45.00000000	   1714.43995539	   -290.26877826	     32.44774981	     64.68868802	    382.72595907	    198.23896509	      8.68457672	      3.10950415	     10.91634393	    -45.00000000	    -38.89844024	     45.00000000	    -43.62526002	  -3503.94675272	    434.94437676	     19.01425418	    -51.76623520	    743.57791821	    158.18972855	     -5.65873382	    -12.07762961
      3.06000000	     36.14421514	     21.45614130	     26.55069632	   -125.87755110	    803.03139786	      8.49169512	     16.00624019	     38.39321270	     39.33514174	     45.00000000	    -45.00000000	   1714.64422036	   -290.57266117	     32.39376391	     65.77152658	    382.45658779	    199.82915325	      8.54219314	      2.99781635	     10.98118261	    -45.00000000	    -38.78157195	     45.00000000	    -43.96325990	  -3504.26879072	    434.56724765	     19.07368372	    -51.50904542	    743.36789358	    155.97636320	     -5.93178414	    -12.60888546
      3.07000000	     35.84851722	     22.06312117	     27.53083796	   -120.68938927	    800.15143179	      8.53456577	     16.32876534	     38.57025087	     39.33001019	     45.00000000	    -45.00000000	   1715.05606703	   -290.91914020	     32.00006354	     66.88890591	    382.08711683	    201.64976627	      8.37938521	      2.91139774	     10.63042678	    -45.00000000	    -38.52574547	     45.00000000	    -44.23151501	  -3504.71928634	    434.22464833	     19.03299359	    -50.40104410	    743.09632721	    152.12323459	     -6.12380336	    -13.40437508
      3.08000000	     35.37596112	     23.14289353	     28.86980414	   -115.51079993	    797.23364531	      8.55963556	     15.05710011	     38.00670640	     38.75001487	     45.00000000	    -45.00000000	   1715.25125196	   -291.23443222	     31.84697761	     67.91722285	    381.69085614	    202.82757341	      8.26330263	      2.60603916	     11.69723973	    -45.00000000	    -38.51377765	     45.00000000	    -44.87253698	  -3504.65913692	    433.49642945	     19.47838027	    -50.29483728	    742.65980990	    148.30169564	     -6.41790456	    -14.41773431
